<?xml version="1.0" encoding="UTF-8"?>
<svg id="Layer_2" data-name="Layer 2" xmlns="http://www.w3.org/2000/svg" viewBox="0 0 81 91.52">
  <defs>
    <style>
      .cls-1 {
        fill: #74121d;
      }

      .cls-1, .cls-2, .cls-3, .cls-4 {
        stroke: #000;
        stroke-miterlimit: 10;
      }

      .cls-1, .cls-3, .cls-4 {
        stroke-linecap: round;
      }

      .cls-2 {
        fill: #9f1928;
      }

      .cls-5 {
        fill: #fff;
        stroke-width: 0px;
      }

      .cls-4 {
        fill: #c21e31;
      }
    </style>
  </defs>
  <g id="Layer_1-2">
    <g>
      <path class="cls-2" d="m40.5,48.78v39.52c0,1.58-1.6,2.61-3.01,2.05-.16-.08-.33-.17-.49-.26L2.97,70.44c-1.53-.88-2.47-2.51-2.47-4.28V26.64c0-.12.01-.24.03-.35.22-1.49,1.9-2.34,3.27-1.56l34.23,19.76s.03.02.05.03c1.5.9,2.42,2.51,2.42,4.26Z"/>
      <path class="cls-5" d="m20.51,73.13c-1.48-.86-2.9-1.94-4.25-3.25-1.35-1.31-2.53-2.76-3.54-4.35-1.01-1.59-1.74-3.2-2.18-4.84l4.88.74c.15.58.46,1.21.94,1.91.48.7,1.07,1.39,1.79,2.07.72.68,1.5,1.27,2.35,1.76s1.59.77,2.31.91c.72.14,1.31.08,1.75-.17.45-.25.67-.71.67-1.38s-.23-1.37-.7-2.09c-.46-.71-1.06-1.41-1.79-2.1-.73-.69-1.48-1.32-2.24-1.91-1.9-1.41-3.59-2.91-5.09-4.49-1.5-1.58-2.68-3.25-3.55-5.01-.87-1.76-1.3-3.61-1.3-5.55s.46-3.24,1.38-4.1c.92-.86,2.14-1.25,3.65-1.15,1.51.1,3.15.65,4.91,1.67,1.46.84,2.86,1.92,4.22,3.23,1.36,1.32,2.54,2.77,3.55,4.36,1.01,1.59,1.74,3.22,2.18,4.88l-4.88-.79c-.15-.58-.46-1.21-.94-1.9-.48-.69-1.07-1.38-1.79-2.05s-1.49-1.25-2.34-1.74c-.8-.48-1.57-.78-2.29-.91-.72-.13-1.31-.07-1.77.17-.46.24-.69.68-.69,1.33,0,.85.22,1.61.65,2.3.43.68,1.01,1.32,1.72,1.92.72.6,1.51,1.22,2.37,1.87,1.78,1.33,3.43,2.82,4.93,4.46,1.51,1.64,2.71,3.36,3.63,5.16s1.37,3.61,1.37,5.44-.46,3.24-1.37,4.11c-.92.87-2.13,1.25-3.64,1.16s-3.15-.65-4.92-1.67Z"/>
      <path class="cls-4" d="m77.2,24.73l-34.22,19.76h-.01c-1.51.88-3.36.89-4.89.03-.02-.01-.03-.02-.05-.03L3.8,24.73c-1.35-.77-1.46-2.61-.34-3.57.1-.09.22-.17.34-.24l.2-.11L38.03,1.16c1.53-.88,3.41-.88,4.95,0l34.02,19.65.2.11c.12.07.24.15.34.24,1.12.96,1.01,2.8-.34,3.57Z"/>
      <path class="cls-5" d="m26.92,30.66c-1.78-1.03-3.1-2.2-3.97-3.51-.87-1.31-1.27-2.67-1.21-4.07.06-1.4.57-2.77,1.54-4.11.97-1.33,2.38-2.54,4.25-3.62s3.98-1.91,6.29-2.47c2.31-.56,4.68-.85,7.1-.88,2.43-.03,4.77.2,7.05.7,2.27.5,4.3,1.26,6.08,2.29,2.13,1.23,3.61,2.65,4.42,4.25.82,1.6,1,3.21.55,4.84l-7.12-1.24c.12-.88-.07-1.75-.57-2.61-.5-.86-1.31-1.61-2.44-2.26-1.07-.62-2.29-1.07-3.67-1.36-1.38-.29-2.81-.42-4.29-.38-1.48.04-2.93.23-4.34.58-1.41.35-2.7.86-3.87,1.54s-2.05,1.41-2.66,2.23c-.61.82-.95,1.65-1.01,2.5-.06.85.16,1.68.66,2.48.5.8,1.28,1.51,2.35,2.12,1.14.66,2.45,1.13,3.94,1.41,1.48.28,2.99.39,4.51.32l2.13,4.12c-2.8.25-5.59.15-8.37-.32-2.78-.47-5.23-1.32-7.37-2.55Z"/>
      <path class="cls-1" d="m80.5,26.64v39.52c0,1.77-.94,3.4-2.47,4.28l-34.03,19.65c-.16.09-.33.18-.49.26-1.41.56-3.01-.47-3.01-2.05v-39.52c0-1.77.94-3.39,2.47-4.29h.01l34.22-19.76c1.36-.78,3.04.07,3.27,1.55h0c.02.12.03.24.03.36Z"/>
      <path class="cls-3" d="m3.8,24.73c-1.37-.78-3.05.07-3.27,1.56.16-2.06,1.24-3.94,2.93-5.13-1.12.96-1.01,2.8.34,3.57Z"/>
      <path class="cls-3" d="m80.47,26.28c-.23-1.48-1.91-2.33-3.27-1.55,1.35-.77,1.46-2.61.34-3.57,1.69,1.19,2.77,3.06,2.93,5.12Z"/>
      <path class="cls-3" d="m43.51,90.35c-1.91.9-4.11.9-6.02,0,1.41.56,3.01-.47,3.01-2.05,0,1.58,1.6,2.61,3.01,2.05Z"/>
      <path class="cls-3" d="m42.97,44.49c-1.53.9-2.47,2.52-2.47,4.29,0-1.75-.92-3.36-2.42-4.26,1.53.86,3.38.85,4.89-.03Z"/>
      <path class="cls-5" d="m60.51,73.13c-1.48.86-2.9,1.41-4.25,1.65-1.35.25-2.53.16-3.54-.27-1.01-.42-1.74-1.2-2.18-2.33l4.88-4.89c.15.4.46.68.94.83.48.15,1.07.15,1.79,0,.72-.15,1.5-.47,2.35-.96s1.59-1.06,2.31-1.75c.72-.7,1.31-1.43,1.75-2.19.45-.76.67-1.48.67-2.16s-.23-1.1-.7-1.28c-.46-.18-1.06-.19-1.79-.04-.73.15-1.48.38-2.24.68-1.9.78-3.59,1.24-5.09,1.4-1.5.15-2.68-.15-3.55-.91-.87-.76-1.3-2.11-1.3-4.05s.46-3.77,1.38-5.7c.92-1.93,2.14-3.72,3.65-5.37,1.51-1.65,3.15-2.98,4.91-4,1.46-.84,2.86-1.39,4.22-1.64,1.36-.25,2.54-.16,3.55.26,1.01.42,1.74,1.21,2.18,2.37l-4.88,4.85c-.15-.4-.46-.67-.94-.82-.48-.14-1.07-.14-1.79.02s-1.49.47-2.34.96c-.8.45-1.57,1.03-2.29,1.73-.72.7-1.31,1.44-1.77,2.21-.46.77-.69,1.48-.69,2.12,0,.85.22,1.36.65,1.55.43.18,1.01.16,1.72-.07.72-.23,1.51-.52,2.37-.87,1.78-.73,3.43-1.14,4.93-1.24,1.51-.1,2.71.22,3.63.97s1.37,2.04,1.37,3.86c0,1.87-.46,3.77-1.37,5.69-.92,1.93-2.13,3.71-3.64,5.36s-3.15,2.98-4.92,4Z"/>
    </g>
  </g>
</svg>
