<?xml version="1.0" encoding="UTF-8"?>
<svg id="Layer_2" data-name="Layer 2" xmlns="http://www.w3.org/2000/svg" viewBox="0 0 322.02 322.02">
  <defs>
    <style>
      .cls-1 {
        fill: #fff;
      }

      .cls-1, .cls-2 {
        stroke-width: 0px;
      }

      .cls-2 {
        fill: #610b05;
      }
    </style>
  </defs>
  <g id="Layer_1-2" data-name="Layer 1">
    <rect class="cls-2" width="322.02" height="322.02" rx="30" ry="30"/>
    <path class="cls-1" d="m171.77,47.75c-3.41-5.94-10.99-7.99-16.92-4.58-1.91,1.09-3.49,2.67-4.58,4.58l-75.23,127.99c-5.01,8.54,1,19.39,10.75,19.39h150.44c9.75,0,15.78-10.86,10.75-19.39l-75.21-127.99Zm-10.77,37.67c5.87,0,10.47,5.07,9.87,10.92l-3.84,38.47c-.28,3.33-3.22,5.8-6.55,5.52-2.94-.25-5.27-2.58-5.52-5.52l-3.84-38.47c-.55-5.46,3.44-10.32,8.89-10.87.33-.03.65-.05.98-.05m.02,65.82c6.06,0,10.97,4.91,10.97,10.97s-4.91,10.97-10.97,10.97-10.97-4.91-10.97-10.97,4.91-10.97,10.97-10.97"/>
    <g>
      <path class="cls-1" d="m51.78,260.46h-4.95v6.55h5.81l-.55,4.06h-9.88v-24.02h9.84v4.08h-5.21v5.26h4.95v4.06Z"/>
      <path class="cls-1" d="m58.9,260.62v10.44h-4.61v-24.02h5.99c4.03,0,6.01,1.77,6.01,5.97v.86c0,3.42-1.37,4.44-2.4,4.93,1.49.72,2.2,1.82,2.2,5.17,0,2.32-.04,5.83.17,7.09h-4.47c-.3-1.09-.28-4.21-.28-7.28,0-2.7-.31-3.16-2.07-3.16h-.54Zm.01-3.64h.57c1.54,0,2.17-.49,2.17-2.72v-1.16c0-1.61-.32-2.41-2.02-2.41h-.72v6.3Z"/>
      <path class="cls-1" d="m73.4,260.62v10.44h-4.61v-24.02h5.99c4.03,0,6.01,1.77,6.01,5.97v.86c0,3.42-1.37,4.44-2.4,4.93,1.49.72,2.2,1.82,2.2,5.17,0,2.32-.04,5.83.17,7.09h-4.47c-.3-1.09-.28-4.21-.28-7.28,0-2.7-.31-3.16-2.07-3.16h-.54Zm.01-3.64h.57c1.54,0,2.17-.49,2.17-2.72v-1.16c0-1.61-.32-2.41-2.02-2.41h-.72v6.3Z"/>
      <path class="cls-1" d="m95.36,253.47v11.14c0,4.77-2.24,6.81-6.44,6.81s-6.03-2.09-6.03-6.76v-11.31c0-4.64,2.55-6.66,6.25-6.66s6.23,1.99,6.23,6.79Zm-7.8-.52v12.28c0,1.48.51,2.26,1.54,2.26s1.56-.7,1.56-2.28v-12.29c0-1.5-.42-2.27-1.58-2.27-.98,0-1.53.71-1.53,2.3Z"/>
      <path class="cls-1" d="m102.46,260.62v10.44h-4.61v-24.02h5.99c4.03,0,6.01,1.77,6.01,5.97v.86c0,3.42-1.37,4.44-2.4,4.93,1.49.72,2.2,1.82,2.2,5.17,0,2.32-.04,5.83.17,7.09h-4.47c-.3-1.09-.28-4.21-.28-7.28,0-2.7-.31-3.16-2.07-3.16h-.54Zm.01-3.64h.57c1.54,0,2.17-.49,2.17-2.72v-1.16c0-1.61-.32-2.41-2.02-2.41h-.72v6.3Z"/>
      <path class="cls-1" d="m116.74,247.05h4.63v19.98h5.81l-.41,4.04h-10.02v-24.02Z"/>
      <path class="cls-1" d="m140.86,253.47v11.14c0,4.77-2.24,6.81-6.44,6.81s-6.03-2.09-6.03-6.76v-11.31c0-4.64,2.55-6.66,6.25-6.66s6.23,1.99,6.23,6.79Zm-7.8-.52v12.28c0,1.48.51,2.26,1.54,2.26s1.56-.7,1.56-2.28v-12.29c0-1.5-.42-2.27-1.58-2.27-.98,0-1.53.71-1.53,2.3Z"/>
      <path class="cls-1" d="m147.39,265.35l-.59,5.72h-4.71l3.4-24.02h6.89l3.48,24.02h-4.81l-.66-5.72h-2.99Zm2.6-4.07c-.34-3.07-.82-7.75-1.04-10.05h-.18c-.08,1.67-.65,7.08-.97,10.05h2.2Z"/>
      <path class="cls-1" d="m157.49,247.05h5.68c4.95,0,6.66,2.26,6.66,7.23v9.03c0,4.14-.88,7.76-6.34,7.76h-5.99v-24.02Zm4.63,20.3h.9c1.81,0,2.11-1.18,2.11-3.05v-10.76c0-1.77-.4-2.74-2.15-2.74h-.87v16.55Z"/>
      <path class="cls-1" d="m176.95,247.05v24.02h-4.61v-24.02h4.61Z"/>
      <path class="cls-1" d="m179.85,271.07v-24.02h5.11c.76,2.93,3.17,13.81,3.36,14.86h.11c-.26-3.2-.42-7.56-.42-10.92v-3.95h4.29v24.02h-5.16c-.5-2.29-3.12-14.71-3.28-15.48h-.12c.18,2.83.32,7.6.32,11.38v4.1h-4.21Z"/>
      <path class="cls-1" d="m207.07,271.07h-3.47c-.11-.42-.18-1.27-.22-1.78-.76,1.69-2.3,2.14-3.79,2.14-3.74,0-4.79-2.78-4.79-6.71v-11.3c0-3.68,1.52-6.73,6.11-6.73,5.53,0,6.09,4.02,6.09,6.45v1.08h-4.65v-1.32c0-1.16-.14-2.24-1.42-2.24-1.06,0-1.45.77-1.45,2.34v12.31c0,1.63.53,2.23,1.45,2.23,1.12,0,1.51-.87,1.51-2.85v-3.44h-1.59v-3.9h6.23v13.72Z"/>
      <path class="cls-1" d="m219,247.05v24.02h-4.61v-24.02h4.61Z"/>
      <path class="cls-1" d="m234.29,263.41c0-3.72.04-8.99.1-11.94h-.12c-.5,4.81-1.56,14.54-2.22,19.59h-3.92c-.53-5.25-1.57-15.16-2.07-19.65h-.15c.06,2.82.18,8.03.18,12.17v7.48h-4.19v-24.02h6.63c.63,4.57,1.33,10.56,1.6,13.82h.1c.37-3.48,1.17-8.52,1.91-13.82h6.6v24.02h-4.45v-7.65Z"/>
      <path class="cls-1" d="m245.59,265.35l-.59,5.72h-4.71l3.4-24.02h6.89l3.48,24.02h-4.81l-.66-5.72h-2.99Zm2.6-4.07c-.34-3.07-.82-7.75-1.04-10.05h-.18c-.08,1.67-.65,7.08-.97,10.05h2.2Z"/>
      <path class="cls-1" d="m267.77,271.07h-3.47c-.11-.42-.18-1.27-.22-1.78-.76,1.69-2.3,2.14-3.79,2.14-3.74,0-4.79-2.78-4.79-6.71v-11.3c0-3.68,1.52-6.73,6.11-6.73,5.53,0,6.09,4.02,6.09,6.45v1.08h-4.65v-1.32c0-1.16-.14-2.24-1.42-2.24-1.06,0-1.45.77-1.45,2.34v12.31c0,1.63.53,2.23,1.45,2.23,1.12,0,1.51-.87,1.51-2.85v-3.44h-1.59v-3.9h6.23v13.72Z"/>
      <path class="cls-1" d="m280.09,260.46h-4.95v6.55h5.81l-.55,4.06h-9.88v-24.02h9.84v4.08h-5.21v5.26h4.95v4.06Z"/>
    </g>
  </g>
</svg>